<svg xmlns="http://www.w3.org/2000/svg" width="154.002" height="23.035"><g fill="#ed1d24"><path data-name="Path 4135" d="M41.392 14.282c-.876 4.751-4.837 8.661-11.945 8.661-7.129 0-9.74-3.4-8.7-8.678L23.358.449h6.476L27.426 13.27c-.608 3.059.359 4.257 2.969 4.257 2.924 0 4.275-1.692 4.859-4.661L37.64.449h6.387z"/><path data-name="Path 4136" d="M10.71 7.084c0-1.24 1.17-1.913 3.105-1.913a16.111 16.111 0 013.911.538l1.4-5.372a33.781 33.781 0 00-5.216-.338c-8.077 0-11.454 4.2-11.454 8.3 0 5.014 6.866 4.718 6.866 7.282 0 1.085-1.085 1.868-3.151 1.868a13.331 13.331 0 01-4.657-.853L.006 22.534a28.342 28.342 0 005.713.5c7.2 0 12.037-3.624 12.037-8.463 0-5.166-7.041-5.166-7.041-7.487"/><path data-name="Path 4137" d="M65.259 22.517h-8.077l-3.488-9.586a20.765 20.765 0 01-1.034-3.8h-.046c-.11.881-.2 1.709-.448 3.012l-2 10.374h-6.007L48.252.448h8.124l3.441 9.248c.449 1.277.922 2.609 1.3 4.068h.046c.135-1.17.225-2.558.517-4.356l1.64-8.96h6.073z"/><path data-name="Path 4138" d="M95.266 22.517h-7.538l-.72-9.376c-.11-1.515-.11-3.382-.11-4.913h-.042c-.451 1.13-1.124 3.089-1.844 4.7l-4.342 9.586h-7.2L71.243.445h6.726l.922 10.215a38.322 38.322 0 01.09 3.956h.067a38.134 38.134 0 011.486-3.915L85.145.444h6.611l.9 9.988c.087 1.009.153 2.5.153 4.183h.1c.468-1.37 1.077-3.191 1.593-4.362l4.477-9.81h6.435z"/><path data-name="Path 4139" d="M133.369 15.657l-1.3 6.86h-6.48l1.307-6.748L122.103.446h6.818l1.348 4.864c.313 1.168.7 2.519.964 4.048h.022c.813-1.529 1.8-2.971 2.637-4.227l3.124-4.684h6.953z"/><path data-name="Path 4140" d="M111.01.448L99.02 22.517h6.731l1.8-3.353h7.515l.471 3.353h6.793L118.754.448zm-1.056 14.039l2.205-4.229c.473-.9.946-1.85 1.441-2.972h.045a24.985 24.985 0 00.246 2.927l.56 4.274z"/><path data-name="Path 4141" d="M149.962 3.741h.695c.7 0 .947-.216.947-.632 0-.344-.186-.56-.853-.56h-.789zm0 2.151h-.6V2.073h1.454c.917 0 1.393.315 1.393 1.07a1.015 1.015 0 01-1.014 1.074l1.071 1.677h-.632l-1.005-1.675h-.667zm.695-4.7a2.72 2.72 0 00-2.752 2.775 2.733 2.733 0 105.465 0 2.709 2.709 0 00-2.712-2.775m0-.535a3.33 3.33 0 11-3.377 3.31 3.319 3.319 0 013.377-3.31"/></g></svg>